<?xml version="1.0" encoding="utf-8"?>
<!-- Generator: Adobe Illustrator 26.3.1, SVG Export Plug-In . SVG Version: 6.00 Build 0)  -->
<svg version="1.1" id="Calque_1" xmlns="http://www.w3.org/2000/svg" xmlns:xlink="http://www.w3.org/1999/xlink" x="0px" y="0px"
	 viewBox="0 0 600 600" style="enable-background:new 0 0 600 600;" xml:space="preserve">
<style type="text/css">
	.st0{fill:#1D1D1B;}
	.st1{fill:#F1B05C;}
	.st2{fill:#DA9949;}
</style>
<g>
	<g id="XMLID_00000103248959372718190770000001317511456636872362_">
		<g>
			<rect x="355.77" y="330.76" class="st0" width="12.4" height="12.4"/>
			<rect x="355.77" y="318.37" class="st0" width="12.4" height="12.4"/>
			<rect x="355.77" y="305.97" class="st0" width="12.4" height="12.4"/>
			<rect x="355.77" y="293.57" class="st0" width="12.4" height="12.4"/>
			<rect x="355.77" y="281.18" class="st0" width="12.4" height="12.4"/>
			<rect x="355.77" y="268.77" class="st0" width="12.4" height="12.4"/>
			<rect x="343.38" y="256.38" class="st0" width="12.4" height="12.4"/>
			<rect x="343.38" y="343.16" class="st0" width="12.4" height="12.4"/>
			<rect x="343.38" y="330.76" class="st1" width="12.4" height="12.4"/>
			<rect x="343.38" y="318.37" class="st1" width="12.4" height="12.4"/>
			<rect x="343.38" y="305.97" class="st1" width="12.4" height="12.4"/>
			<rect x="343.38" y="293.57" class="st1" width="12.4" height="12.4"/>
			<rect x="343.38" y="281.18" class="st0" width="12.4" height="12.4"/>
			<rect x="343.38" y="268.77" class="st2" width="12.4" height="12.4"/>
			<rect x="330.98" y="256.38" class="st2" width="12.4" height="12.4"/>
			<rect x="330.98" y="243.98" class="st0" width="12.4" height="12.4"/>
			<rect x="330.98" y="355.55" class="st0" width="12.4" height="12.4"/>
			<rect x="330.98" y="343.16" class="st1" width="12.4" height="12.4"/>
			<rect x="330.98" y="330.76" class="st1" width="12.4" height="12.4"/>
			<rect x="330.98" y="318.37" class="st1" width="12.4" height="12.4"/>
			<rect x="330.98" y="305.97" class="st1" width="12.4" height="12.4"/>
			<rect x="330.98" y="293.57" class="st0" width="12.4" height="12.4"/>
			<rect x="330.98" y="281.18" class="st2" width="12.4" height="12.4"/>
			<rect x="330.98" y="268.77" class="st2" width="12.4" height="12.4"/>
			<rect x="318.59" y="256.38" class="st2" width="12.4" height="12.4"/>
			<rect x="318.59" y="243.98" class="st0" width="12.4" height="12.4"/>
			<rect x="318.59" y="355.55" class="st0" width="12.4" height="12.4"/>
			<rect x="318.59" y="343.16" class="st0" width="12.4" height="12.4"/>
			<rect x="318.59" y="330.76" class="st0" width="12.4" height="12.4"/>
			<rect x="318.59" y="318.37" class="st0" width="12.4" height="12.4"/>
			<rect x="318.59" y="305.97" class="st0" width="12.4" height="12.4"/>
			<rect x="318.59" y="293.57" class="st2" width="12.4" height="12.4"/>
			<rect x="318.59" y="281.18" class="st2" width="12.4" height="12.4"/>
			<rect x="318.59" y="268.77" class="st2" width="12.4" height="12.4"/>
			<rect x="306.19" y="256.38" class="st2" width="12.4" height="12.4"/>
			<rect x="306.19" y="243.98" class="st0" width="12.4" height="12.4"/>
			<rect x="306.19" y="355.55" class="st0" width="12.4" height="12.4"/>
			<rect x="306.19" y="343.16" class="st1" width="12.4" height="12.4"/>
			<rect x="306.19" y="330.76" class="st1" width="12.4" height="12.4"/>
			<rect x="306.19" y="318.37" class="st1" width="12.4" height="12.4"/>
			<rect x="306.19" y="305.97" class="st1" width="12.4" height="12.4"/>
			<rect x="306.19" y="293.57" class="st0" width="12.4" height="12.4"/>
			<rect x="306.19" y="281.18" class="st2" width="12.4" height="12.4"/>
			<rect x="306.19" y="268.77" class="st2" width="12.4" height="12.4"/>
			<rect x="293.79" y="256.38" class="st2" width="12.4" height="12.4"/>
			<rect x="293.79" y="243.98" class="st0" width="12.4" height="12.4"/>
			<rect x="293.79" y="355.55" class="st0" width="12.4" height="12.4"/>
			<rect x="293.79" y="343.16" class="st1" width="12.4" height="12.4"/>
			<rect x="293.79" y="330.76" class="st1" width="12.4" height="12.4"/>
			<rect x="293.79" y="318.37" class="st1" width="12.4" height="12.4"/>
			<rect x="293.79" y="305.97" class="st1" width="12.4" height="12.4"/>
			<rect x="293.79" y="293.57" class="st0" width="12.4" height="12.4"/>
			<rect x="293.79" y="281.18" class="st2" width="12.4" height="12.4"/>
			<rect x="293.79" y="268.77" class="st2" width="12.4" height="12.4"/>
			<rect x="281.39" y="256.38" class="st2" width="12.4" height="12.4"/>
			<rect x="281.39" y="243.98" class="st0" width="12.4" height="12.4"/>
			<rect x="281.39" y="355.55" class="st0" width="12.4" height="12.4"/>
			<rect x="281.39" y="343.16" class="st1" width="12.4" height="12.4"/>
			<rect x="281.39" y="330.76" class="st1" width="12.4" height="12.4"/>
			<rect x="281.39" y="318.37" class="st1" width="12.4" height="12.4"/>
			<rect x="281.39" y="305.97" class="st1" width="12.4" height="12.4"/>
			<rect x="281.39" y="293.57" class="st0" width="12.4" height="12.4"/>
			<rect x="281.39" y="281.18" class="st2" width="12.4" height="12.4"/>
			<rect x="281.39" y="268.77" class="st2" width="12.4" height="12.4"/>
			<rect x="268.99" y="256.38" class="st0" width="12.4" height="12.4"/>
			<rect x="268.99" y="355.55" class="st0" width="12.4" height="12.4"/>
			<rect x="268.99" y="343.16" class="st1" width="12.4" height="12.4"/>
			<rect x="268.99" y="330.76" class="st1" width="12.4" height="12.4"/>
			<rect x="268.99" y="318.37" class="st1" width="12.4" height="12.4"/>
			<rect x="268.99" y="305.97" class="st1" width="12.4" height="12.4"/>
			<rect x="268.99" y="293.57" class="st1" width="12.4" height="12.4"/>
			<rect x="268.99" y="281.18" class="st0" width="12.4" height="12.4"/>
			<rect x="268.99" y="268.77" class="st2" width="12.4" height="12.4"/>
			<rect x="256.6" y="343.16" class="st0" width="12.4" height="12.4"/>
			<rect x="256.6" y="330.76" class="st1" width="12.4" height="12.4"/>
			<rect x="256.6" y="318.37" class="st1" width="12.4" height="12.4"/>
			<rect x="256.6" y="305.97" class="st1" width="12.4" height="12.4"/>
			<rect x="256.6" y="293.57" class="st1" width="12.4" height="12.4"/>
			<rect x="256.6" y="281.18" class="st0" width="12.4" height="12.4"/>
			<rect x="256.6" y="268.77" class="st0" width="12.4" height="12.4"/>
			<rect x="244.2" y="343.16" class="st0" width="12.4" height="12.4"/>
			<rect x="244.2" y="330.76" class="st0" width="12.4" height="12.4"/>
			<rect x="244.2" y="318.37" class="st0" width="12.4" height="12.4"/>
			<rect x="244.2" y="305.97" class="st0" width="12.4" height="12.4"/>
			<rect x="244.2" y="293.57" class="st0" width="12.4" height="12.4"/>
			<rect x="244.2" y="281.18" class="st0" width="12.4" height="12.4"/>
			<rect x="244.2" y="268.77" class="st0" width="12.4" height="12.4"/>
		</g>
		<g>
		</g>
	</g>
</g>
</svg>
