<?xml version="1.0" encoding="UTF-8"?><svg id="Calque_1" xmlns="http://www.w3.org/2000/svg" viewBox="0 0 409.51 409.51"><defs><style>.cls-1{fill:#f1b05c;}.cls-2{fill:#1d1d1b;}</style></defs><rect class="cls-2" x="272.93" y="260.54" width="12.4" height="12.4"/><rect class="cls-2" x="272.93" y="248.14" width="12.4" height="12.4"/><rect class="cls-2" x="272.93" y="235.75" width="12.4" height="12.4"/><rect class="cls-2" x="272.93" y="223.35" width="12.4" height="12.4"/><rect class="cls-2" x="272.93" y="210.96" width="12.4" height="12.4"/><rect class="cls-2" x="272.93" y="198.55" width="12.4" height="12.4"/><rect class="cls-2" x="260.54" y="272.94" width="12.4" height="12.4"/><rect class="cls-1" x="260.54" y="260.54" width="12.4" height="12.4"/><rect class="cls-1" x="260.54" y="248.14" width="12.4" height="12.4"/><rect class="cls-1" x="260.54" y="235.75" width="12.4" height="12.4"/><rect class="cls-1" x="260.54" y="223.35" width="12.4" height="12.4"/><rect class="cls-2" x="260.54" y="210.96" width="12.4" height="12.4"/><rect class="cls-2" x="260.54" y="186.16" width="12.4" height="12.4"/><rect class="cls-2" x="248.14" y="285.33" width="12.4" height="12.4"/><rect class="cls-1" x="248.14" y="272.94" width="12.4" height="12.4"/><rect class="cls-1" x="248.14" y="260.54" width="12.4" height="12.4"/><rect class="cls-1" x="248.14" y="248.14" width="12.4" height="12.4"/><rect class="cls-1" x="248.14" y="235.75" width="12.4" height="12.4"/><rect class="cls-2" x="248.14" y="223.35" width="12.4" height="12.4"/><rect class="cls-2" x="235.74" y="285.33" width="12.4" height="12.4"/><rect class="cls-2" x="235.74" y="272.94" width="12.4" height="12.4"/><rect class="cls-2" x="235.74" y="260.54" width="12.4" height="12.4"/><rect class="cls-2" x="235.74" y="248.14" width="12.4" height="12.4"/><rect class="cls-2" x="235.74" y="235.75" width="12.4" height="12.4"/><rect class="cls-2" x="223.35" y="285.33" width="12.4" height="12.4"/><rect class="cls-1" x="223.35" y="272.94" width="12.4" height="12.4"/><rect class="cls-1" x="223.35" y="260.54" width="12.4" height="12.4"/><rect class="cls-1" x="223.35" y="248.14" width="12.4" height="12.4"/><rect class="cls-1" x="223.35" y="235.75" width="12.4" height="12.4"/><rect class="cls-2" x="223.35" y="223.35" width="12.4" height="12.4"/><rect class="cls-2" x="210.95" y="285.33" width="12.4" height="12.4"/><rect class="cls-1" x="210.95" y="272.94" width="12.4" height="12.4"/><rect class="cls-1" x="210.95" y="260.54" width="12.4" height="12.4"/><rect class="cls-1" x="210.95" y="248.14" width="12.4" height="12.4"/><rect class="cls-1" x="210.95" y="235.75" width="12.4" height="12.4"/><rect class="cls-2" x="210.95" y="223.35" width="12.4" height="12.4"/><rect class="cls-2" x="198.55" y="285.33" width="12.4" height="12.4"/><rect class="cls-1" x="198.55" y="272.94" width="12.4" height="12.4"/><rect class="cls-1" x="198.55" y="260.54" width="12.4" height="12.4"/><rect class="cls-1" x="198.55" y="248.14" width="12.4" height="12.4"/><rect class="cls-1" x="198.55" y="235.75" width="12.4" height="12.4"/><rect class="cls-2" x="198.55" y="223.35" width="12.4" height="12.4"/><rect class="cls-2" x="186.15" y="285.33" width="12.4" height="12.4"/><rect class="cls-1" x="186.15" y="272.94" width="12.4" height="12.4"/><rect class="cls-1" x="186.15" y="260.54" width="12.4" height="12.4"/><rect class="cls-1" x="186.15" y="248.14" width="12.4" height="12.4"/><rect class="cls-1" x="186.15" y="235.75" width="12.4" height="12.4"/><rect class="cls-1" x="186.15" y="223.35" width="12.4" height="12.4"/><rect class="cls-2" x="186.15" y="210.96" width="12.4" height="12.4"/><rect class="cls-2" x="173.76" y="272.94" width="12.4" height="12.4"/><rect class="cls-1" x="173.76" y="260.54" width="12.4" height="12.4"/><rect class="cls-1" x="173.76" y="248.14" width="12.4" height="12.4"/><rect class="cls-1" x="173.76" y="235.75" width="12.4" height="12.4"/><rect class="cls-1" x="173.76" y="223.35" width="12.4" height="12.4"/><rect class="cls-2" x="173.76" y="210.96" width="12.4" height="12.4"/><rect class="cls-2" x="173.76" y="198.55" width="12.4" height="12.4"/><rect class="cls-2" x="161.36" y="272.94" width="12.4" height="12.4"/><rect class="cls-2" x="161.36" y="260.54" width="12.4" height="12.4"/><rect class="cls-2" x="161.36" y="248.14" width="12.4" height="12.4"/><rect class="cls-2" x="161.36" y="235.75" width="12.4" height="12.4"/><rect class="cls-2" x="161.36" y="223.35" width="12.4" height="12.4"/><rect class="cls-2" x="161.36" y="210.96" width="12.4" height="12.4"/><rect class="cls-2" x="161.36" y="198.55" width="12.4" height="12.4"/></svg>