<?xml version="1.0" encoding="UTF-8" standalone="no"?>
<!DOCTYPE svg PUBLIC "-//W3C//DTD SVG 1.1//EN" "http://www.w3.org/Graphics/SVG/1.1/DTD/svg11.dtd">
<svg width="100%" height="100%" viewBox="0 0 410 410" version="1.1" xmlns="http://www.w3.org/2000/svg" xmlns:xlink="http://www.w3.org/1999/xlink" xml:space="preserve" xmlns:serif="http://www.serif.com/" style="fill-rule:evenodd;clip-rule:evenodd;stroke-linejoin:round;stroke-miterlimit:2;">
    <g id="cardBoxOpen">
        <rect x="272.93" y="260.54" width="12.4" height="12.4" style="fill:rgb(29,29,27);"/>
        <rect x="272.93" y="248.14" width="12.4" height="12.4" style="fill:rgb(29,29,27);"/>
        <rect x="272.93" y="235.75" width="12.4" height="12.4" style="fill:rgb(29,29,27);"/>
        <rect x="272.93" y="223.35" width="12.4" height="12.4" style="fill:rgb(29,29,27);"/>
        <rect x="272.93" y="210.96" width="12.4" height="12.4" style="fill:rgb(29,29,27);"/>
        <rect x="272.93" y="198.55" width="12.4" height="12.4" style="fill:rgb(29,29,27);"/>
        <rect x="260.54" y="272.94" width="12.4" height="12.4" style="fill:rgb(29,29,27);"/>
        <rect x="260.54" y="260.54" width="12.4" height="12.4" style="fill:rgb(241,176,92);"/>
        <rect x="260.54" y="248.14" width="12.4" height="12.4" style="fill:rgb(241,176,92);"/>
        <rect x="260.54" y="235.75" width="12.4" height="12.4" style="fill:rgb(241,176,92);"/>
        <rect x="260.54" y="223.35" width="12.4" height="12.4" style="fill:rgb(241,176,92);"/>
        <rect x="260.54" y="210.96" width="12.4" height="12.4" style="fill:rgb(29,29,27);"/>
        <rect x="260.54" y="186.16" width="12.4" height="12.4" style="fill:rgb(29,29,27);"/>
        <rect x="248.14" y="285.33" width="12.4" height="12.4" style="fill:rgb(29,29,27);"/>
        <rect x="248.14" y="272.94" width="12.4" height="12.4" style="fill:rgb(241,176,92);"/>
        <rect x="248.14" y="260.54" width="12.4" height="12.4" style="fill:rgb(241,176,92);"/>
        <rect x="248.14" y="248.14" width="12.4" height="12.4" style="fill:rgb(241,176,92);"/>
        <rect x="248.14" y="235.75" width="12.4" height="12.4" style="fill:rgb(241,176,92);"/>
        <rect x="248.14" y="223.35" width="12.4" height="12.4" style="fill:rgb(29,29,27);"/>
        <rect x="235.74" y="285.33" width="12.4" height="12.4" style="fill:rgb(29,29,27);"/>
        <rect x="235.74" y="272.94" width="12.4" height="12.4" style="fill:rgb(29,29,27);"/>
        <rect x="235.74" y="260.54" width="12.4" height="12.4" style="fill:rgb(29,29,27);"/>
        <rect x="235.74" y="248.14" width="12.4" height="12.4" style="fill:rgb(29,29,27);"/>
        <rect x="235.74" y="235.75" width="12.4" height="12.4" style="fill:rgb(29,29,27);"/>
        <rect x="223.35" y="285.33" width="12.4" height="12.4" style="fill:rgb(29,29,27);"/>
        <rect x="223.35" y="272.94" width="12.4" height="12.4" style="fill:rgb(241,176,92);"/>
        <rect x="223.35" y="260.54" width="12.4" height="12.4" style="fill:rgb(241,176,92);"/>
        <rect x="223.35" y="248.14" width="12.4" height="12.4" style="fill:rgb(241,176,92);"/>
        <rect x="223.35" y="235.75" width="12.4" height="12.4" style="fill:rgb(241,176,92);"/>
        <rect x="223.35" y="223.35" width="12.4" height="12.4" style="fill:rgb(29,29,27);"/>
        <rect x="210.95" y="285.33" width="12.4" height="12.4" style="fill:rgb(29,29,27);"/>
        <rect x="210.95" y="272.94" width="12.4" height="12.4" style="fill:rgb(241,176,92);"/>
        <rect x="210.95" y="260.54" width="12.4" height="12.4" style="fill:rgb(241,176,92);"/>
        <rect x="210.95" y="248.14" width="12.4" height="12.4" style="fill:rgb(241,176,92);"/>
        <rect x="210.95" y="235.75" width="12.4" height="12.4" style="fill:rgb(241,176,92);"/>
        <rect x="210.95" y="223.35" width="12.4" height="12.4" style="fill:rgb(29,29,27);"/>
        <rect x="198.55" y="285.33" width="12.4" height="12.4" style="fill:rgb(29,29,27);"/>
        <rect x="198.55" y="272.94" width="12.4" height="12.4" style="fill:rgb(241,176,92);"/>
        <rect x="198.55" y="260.54" width="12.4" height="12.4" style="fill:rgb(241,176,92);"/>
        <rect x="198.55" y="248.14" width="12.4" height="12.4" style="fill:rgb(241,176,92);"/>
        <rect x="198.55" y="235.75" width="12.4" height="12.4" style="fill:rgb(241,176,92);"/>
        <rect x="198.55" y="223.35" width="12.4" height="12.4" style="fill:rgb(29,29,27);"/>
        <rect x="186.15" y="285.33" width="12.4" height="12.4" style="fill:rgb(29,29,27);"/>
        <rect x="186.15" y="272.94" width="12.4" height="12.4" style="fill:rgb(241,176,92);"/>
        <rect x="186.15" y="260.54" width="12.4" height="12.4" style="fill:rgb(241,176,92);"/>
        <rect x="186.15" y="248.14" width="12.4" height="12.4" style="fill:rgb(241,176,92);"/>
        <rect x="186.15" y="235.75" width="12.4" height="12.4" style="fill:rgb(241,176,92);"/>
        <rect x="186.15" y="223.35" width="12.4" height="12.4" style="fill:rgb(241,176,92);"/>
        <rect x="186.15" y="210.96" width="12.4" height="12.4" style="fill:rgb(29,29,27);"/>
        <rect x="173.76" y="272.94" width="12.4" height="12.4" style="fill:rgb(29,29,27);"/>
        <rect x="173.76" y="260.54" width="12.4" height="12.4" style="fill:rgb(241,176,92);"/>
        <rect x="173.76" y="248.14" width="12.4" height="12.4" style="fill:rgb(241,176,92);"/>
        <rect x="173.76" y="235.75" width="12.4" height="12.4" style="fill:rgb(241,176,92);"/>
        <rect x="173.76" y="223.35" width="12.4" height="12.4" style="fill:rgb(241,176,92);"/>
        <rect x="173.76" y="210.96" width="12.4" height="12.4" style="fill:rgb(29,29,27);"/>
        <rect x="173.76" y="198.55" width="12.4" height="12.4" style="fill:rgb(29,29,27);"/>
        <rect x="161.36" y="272.94" width="12.4" height="12.4" style="fill:rgb(29,29,27);"/>
        <rect x="161.36" y="260.54" width="12.4" height="12.4" style="fill:rgb(29,29,27);"/>
        <rect x="161.36" y="248.14" width="12.4" height="12.4" style="fill:rgb(29,29,27);"/>
        <rect x="161.36" y="235.75" width="12.4" height="12.4" style="fill:rgb(29,29,27);"/>
        <rect x="161.36" y="223.35" width="12.4" height="12.4" style="fill:rgb(29,29,27);"/>
        <rect x="161.36" y="210.96" width="12.4" height="12.4" style="fill:rgb(29,29,27);"/>
        <rect x="161.36" y="198.55" width="12.4" height="12.4" style="fill:rgb(29,29,27);"/>
    </g>
</svg>
