<?xml version="1.0" encoding="UTF-8"?><svg id="Calque_1" xmlns="http://www.w3.org/2000/svg" viewBox="0 0 2042.83 977.8"><defs><style>.cls-1{fill:#8a8a8a;}.cls-2{fill:#1d1d1b;}</style></defs><rect class="cls-1" x="1378.52" y="689.67" width="15.15" height="15.15"/><rect class="cls-1" x="1363.37" y="689.67" width="15.15" height="15.15"/><rect class="cls-1" x="1348.22" y="689.67" width="15.15" height="15.15"/><rect class="cls-1" x="1333.06" y="689.67" width="15.16" height="15.15"/><rect class="cls-1" x="1408.82" y="841.19" width="15.15" height="15.15"/><rect class="cls-1" x="1454.28" y="841.19" width="15.15" height="15.15"/><rect class="cls-1" x="1439.12" y="841.19" width="15.16" height="15.15"/><rect class="cls-1" x="1423.97" y="841.19" width="15.15" height="15.15"/><rect class="cls-1" x="1469.43" y="826.03" width="15.15" height="15.16"/><rect class="cls-1" x="1469.43" y="795.73" width="15.15" height="15.15"/><rect class="cls-1" x="1469.43" y="810.88" width="15.15" height="15.15"/><rect class="cls-1" x="1484.58" y="735.13" width="15.15" height="15.15"/><rect class="cls-1" x="1484.58" y="750.28" width="15.15" height="15.15"/><rect class="cls-1" x="1484.58" y="765.43" width="15.15" height="15.15"/><rect class="cls-1" x="1499.73" y="735.13" width="15.15" height="15.15"/><rect class="cls-1" x="1530.03" y="735.13" width="15.15" height="15.15"/><rect class="cls-1" x="1514.88" y="735.13" width="15.15" height="15.15"/><rect class="cls-1" x="1545.18" y="719.97" width="15.16" height="15.16"/><rect class="cls-1" x="1560.34" y="704.82" width="15.15" height="15.15"/><rect class="cls-1" x="1560.34" y="613.91" width="15.15" height="15.16"/><rect class="cls-1" x="1545.18" y="598.76" width="15.16" height="15.15"/><rect class="cls-1" x="1530.03" y="583.61" width="15.15" height="15.15"/><rect class="cls-1" x="1408.82" y="644.22" width="15.15" height="15.15"/><rect class="cls-1" x="1408.82" y="659.37" width="15.15" height="15.15"/><rect class="cls-1" x="1393.67" y="674.52" width="15.15" height="15.15"/><rect class="cls-2" x="1560.34" y="689.67" width="15.15" height="15.15"/><rect class="cls-2" x="1560.34" y="674.52" width="15.15" height="15.15"/><rect class="cls-2" x="1560.34" y="659.37" width="15.15" height="15.15"/><rect class="cls-2" x="1560.34" y="644.22" width="15.15" height="15.15"/><rect class="cls-2" x="1560.34" y="629.07" width="15.15" height="15.15"/><rect class="cls-2" x="1545.18" y="704.82" width="15.16" height="15.15"/><rect class="cls-2" x="1545.18" y="689.67" width="15.16" height="15.15"/><rect class="cls-2" x="1545.18" y="674.52" width="15.16" height="15.15"/><rect class="cls-2" x="1545.18" y="659.37" width="15.16" height="15.15"/><rect class="cls-2" x="1545.18" y="644.22" width="15.16" height="15.15"/><rect class="cls-2" x="1545.18" y="629.07" width="15.16" height="15.15"/><rect class="cls-2" x="1545.18" y="613.91" width="15.16" height="15.16"/><rect class="cls-2" x="1530.03" y="719.97" width="15.15" height="15.16"/><rect class="cls-2" x="1530.03" y="704.82" width="15.15" height="15.15"/><rect class="cls-2" x="1530.03" y="689.67" width="15.15" height="15.15"/><rect class="cls-2" x="1530.03" y="674.52" width="15.15" height="15.15"/><rect class="cls-2" x="1530.03" y="659.37" width="15.15" height="15.15"/><rect class="cls-2" x="1530.03" y="644.22" width="15.15" height="15.15"/><rect class="cls-2" x="1530.03" y="629.07" width="15.15" height="15.15"/><rect class="cls-2" x="1530.03" y="613.91" width="15.15" height="15.16"/><rect class="cls-2" x="1530.03" y="598.76" width="15.15" height="15.15"/><rect class="cls-2" x="1514.88" y="719.97" width="15.15" height="15.16"/><rect class="cls-2" x="1514.88" y="704.82" width="15.15" height="15.15"/><rect class="cls-2" x="1514.88" y="689.67" width="15.15" height="15.15"/><rect class="cls-2" x="1514.88" y="674.52" width="15.15" height="15.15"/><rect class="cls-2" x="1514.88" y="659.37" width="15.15" height="15.15"/><rect class="cls-2" x="1514.88" y="644.22" width="15.15" height="15.15"/><rect class="cls-2" x="1514.88" y="629.07" width="15.15" height="15.15"/><rect class="cls-2" x="1514.88" y="613.91" width="15.15" height="15.16"/><rect class="cls-2" x="1514.88" y="598.76" width="15.15" height="15.15"/><rect class="cls-2" x="1514.88" y="583.61" width="15.15" height="15.15"/><rect class="cls-2" x="1499.73" y="719.97" width="15.15" height="15.16"/><rect class="cls-2" x="1499.73" y="704.82" width="15.15" height="15.15"/><rect class="cls-2" x="1499.73" y="689.67" width="15.15" height="15.15"/><rect class="cls-2" x="1499.73" y="674.52" width="15.15" height="15.15"/><rect class="cls-2" x="1499.73" y="659.37" width="15.15" height="15.15"/><rect class="cls-2" x="1499.73" y="644.22" width="15.15" height="15.15"/><rect class="cls-2" x="1499.73" y="629.07" width="15.15" height="15.15"/><rect class="cls-2" x="1499.73" y="613.91" width="15.15" height="15.16"/><rect class="cls-2" x="1499.73" y="598.76" width="15.15" height="15.15"/><rect class="cls-2" x="1499.73" y="583.61" width="15.15" height="15.15"/><rect class="cls-2" x="1484.58" y="719.97" width="15.15" height="15.16"/><rect class="cls-2" x="1484.58" y="704.82" width="15.15" height="15.15"/><rect class="cls-2" x="1484.58" y="689.67" width="15.15" height="15.15"/><rect class="cls-2" x="1484.58" y="674.52" width="15.15" height="15.15"/><rect class="cls-2" x="1484.58" y="659.37" width="15.15" height="15.15"/><rect class="cls-2" x="1484.58" y="644.22" width="15.15" height="15.15"/><rect class="cls-2" x="1484.58" y="629.07" width="15.15" height="15.15"/><rect class="cls-2" x="1484.58" y="613.91" width="15.15" height="15.16"/><rect class="cls-2" x="1484.58" y="598.76" width="15.15" height="15.15"/><rect class="cls-2" x="1484.58" y="583.61" width="15.15" height="15.15"/><rect class="cls-2" x="1469.43" y="765.43" width="15.15" height="15.15"/><rect class="cls-2" x="1469.43" y="750.28" width="15.15" height="15.15"/><rect class="cls-2" x="1469.43" y="735.13" width="15.15" height="15.15"/><rect class="cls-2" x="1469.43" y="719.97" width="15.15" height="15.16"/><rect class="cls-2" x="1469.43" y="704.82" width="15.15" height="15.15"/><rect class="cls-2" x="1469.43" y="689.67" width="15.15" height="15.15"/><rect class="cls-2" x="1469.43" y="629.07" width="15.15" height="15.15"/><rect class="cls-2" x="1469.43" y="613.91" width="15.15" height="15.16"/><rect class="cls-2" x="1469.43" y="598.76" width="15.15" height="15.15"/><rect class="cls-2" x="1469.43" y="583.61" width="15.15" height="15.15"/><rect class="cls-2" x="1454.28" y="826.03" width="15.15" height="15.16"/><rect class="cls-2" x="1454.28" y="810.88" width="15.15" height="15.15"/><rect class="cls-2" x="1454.28" y="795.73" width="15.15" height="15.15"/><rect class="cls-2" x="1454.28" y="765.43" width="15.15" height="15.15"/><rect class="cls-2" x="1454.28" y="750.28" width="15.15" height="15.15"/><rect class="cls-2" x="1454.28" y="735.13" width="15.15" height="15.15"/><rect class="cls-2" x="1454.28" y="719.97" width="15.15" height="15.16"/><rect class="cls-2" x="1454.28" y="704.82" width="15.15" height="15.15"/><rect class="cls-2" x="1454.28" y="689.67" width="15.15" height="15.15"/><rect class="cls-2" x="1454.28" y="629.07" width="15.15" height="15.15"/><rect class="cls-2" x="1454.28" y="613.91" width="15.15" height="15.16"/><rect class="cls-2" x="1454.28" y="598.76" width="15.15" height="15.15"/><rect class="cls-2" x="1454.28" y="583.61" width="15.15" height="15.15"/><rect class="cls-2" x="1439.12" y="826.03" width="15.16" height="15.16"/><rect class="cls-2" x="1439.12" y="810.88" width="15.16" height="15.15"/><rect class="cls-2" x="1439.12" y="795.73" width="15.16" height="15.15"/><rect class="cls-2" x="1439.12" y="765.43" width="15.16" height="15.15"/><rect class="cls-2" x="1439.12" y="750.28" width="15.16" height="15.15"/><rect class="cls-2" x="1439.12" y="735.13" width="15.16" height="15.15"/><rect class="cls-2" x="1439.12" y="719.97" width="15.16" height="15.16"/><rect class="cls-2" x="1439.12" y="704.82" width="15.16" height="15.15"/><rect class="cls-2" x="1439.12" y="689.67" width="15.16" height="15.15"/><rect class="cls-2" x="1439.12" y="629.07" width="15.16" height="15.15"/><rect class="cls-2" x="1439.12" y="613.91" width="15.16" height="15.16"/><rect class="cls-2" x="1439.12" y="598.76" width="15.16" height="15.15"/><rect class="cls-2" x="1439.12" y="583.61" width="15.16" height="15.15"/><rect class="cls-2" x="1423.97" y="826.03" width="15.15" height="15.16"/><rect class="cls-2" x="1423.97" y="810.88" width="15.15" height="15.15"/><rect class="cls-2" x="1423.97" y="795.73" width="15.15" height="15.15"/><rect class="cls-2" x="1423.97" y="765.43" width="15.15" height="15.15"/><rect class="cls-2" x="1423.97" y="750.28" width="15.15" height="15.15"/><rect class="cls-2" x="1423.97" y="735.13" width="15.15" height="15.15"/><rect class="cls-2" x="1423.97" y="719.97" width="15.15" height="15.16"/><rect class="cls-2" x="1423.97" y="704.82" width="15.15" height="15.15"/><rect class="cls-2" x="1423.97" y="689.67" width="15.15" height="15.15"/><rect class="cls-2" x="1423.97" y="629.07" width="15.15" height="15.15"/><rect class="cls-2" x="1423.97" y="613.91" width="15.15" height="15.16"/><rect class="cls-2" x="1423.97" y="598.76" width="15.15" height="15.15"/><rect class="cls-2" x="1423.97" y="583.61" width="15.15" height="15.15"/><rect class="cls-2" x="1408.82" y="826.03" width="15.15" height="15.16"/><rect class="cls-2" x="1408.82" y="810.88" width="15.15" height="15.15"/><rect class="cls-2" x="1408.82" y="795.73" width="15.15" height="15.15"/><rect class="cls-2" x="1408.82" y="765.43" width="15.15" height="15.15"/><rect class="cls-2" x="1408.82" y="750.28" width="15.15" height="15.15"/><rect class="cls-2" x="1408.82" y="735.13" width="15.15" height="15.15"/><rect class="cls-2" x="1408.82" y="719.97" width="15.15" height="15.16"/><rect class="cls-2" x="1408.82" y="704.82" width="15.15" height="15.15"/><rect class="cls-2" x="1408.82" y="629.07" width="15.15" height="15.15"/><rect class="cls-2" x="1408.82" y="613.91" width="15.15" height="15.16"/><rect class="cls-2" x="1408.82" y="598.76" width="15.15" height="15.15"/><rect class="cls-2" x="1408.82" y="583.61" width="15.15" height="15.15"/><rect class="cls-2" x="1393.67" y="659.37" width="15.15" height="15.15"/><rect class="cls-2" x="1393.67" y="644.22" width="15.15" height="15.15"/><rect class="cls-2" x="1393.67" y="629.07" width="15.15" height="15.15"/><rect class="cls-2" x="1393.67" y="613.91" width="15.15" height="15.16"/><rect class="cls-2" x="1393.67" y="598.76" width="15.15" height="15.15"/><rect class="cls-2" x="1393.67" y="583.61" width="15.15" height="15.15"/><rect class="cls-2" x="1378.52" y="674.52" width="15.15" height="15.15"/><rect class="cls-2" x="1378.52" y="659.37" width="15.15" height="15.15"/><rect class="cls-2" x="1378.52" y="644.22" width="15.15" height="15.15"/><rect class="cls-2" x="1378.52" y="629.07" width="15.15" height="15.15"/><rect class="cls-2" x="1378.52" y="613.91" width="15.15" height="15.16"/><rect class="cls-2" x="1378.52" y="598.76" width="15.15" height="15.15"/><rect class="cls-2" x="1378.52" y="583.61" width="15.15" height="15.15"/><rect class="cls-2" x="1363.37" y="674.52" width="15.15" height="15.15"/><rect class="cls-2" x="1363.37" y="659.37" width="15.15" height="15.15"/><rect class="cls-2" x="1363.37" y="644.22" width="15.15" height="15.15"/><rect class="cls-2" x="1363.37" y="629.07" width="15.15" height="15.15"/><rect class="cls-2" x="1363.37" y="613.91" width="15.15" height="15.16"/><rect class="cls-2" x="1363.37" y="598.76" width="15.15" height="15.15"/><rect class="cls-2" x="1363.37" y="583.61" width="15.15" height="15.15"/><rect class="cls-2" x="1348.22" y="674.52" width="15.15" height="15.15"/><rect class="cls-2" x="1348.22" y="659.37" width="15.15" height="15.15"/><rect class="cls-2" x="1348.22" y="644.22" width="15.15" height="15.15"/><rect class="cls-2" x="1348.22" y="629.07" width="15.15" height="15.15"/><rect class="cls-2" x="1348.22" y="613.91" width="15.15" height="15.16"/><rect class="cls-2" x="1348.22" y="598.76" width="15.15" height="15.15"/><rect class="cls-2" x="1348.22" y="583.61" width="15.15" height="15.15"/><rect class="cls-2" x="1333.06" y="674.52" width="15.16" height="15.15"/><rect class="cls-2" x="1333.06" y="659.37" width="15.16" height="15.15"/><rect class="cls-2" x="1333.06" y="644.22" width="15.16" height="15.15"/><rect class="cls-2" x="1333.06" y="629.07" width="15.16" height="15.15"/><rect class="cls-2" x="1333.06" y="613.91" width="15.16" height="15.16"/><rect class="cls-2" x="1333.06" y="598.76" width="15.16" height="15.15"/><rect class="cls-2" x="1317.91" y="659.37" width="15.15" height="15.15"/><rect class="cls-2" x="1317.91" y="644.22" width="15.15" height="15.15"/><rect class="cls-2" x="1317.91" y="629.07" width="15.15" height="15.15"/><rect class="cls-2" x="1317.91" y="613.91" width="15.15" height="15.16"/></svg>