<?xml version="1.0" encoding="UTF-8"?><svg id="Calque_1" xmlns="http://www.w3.org/2000/svg" viewBox="0 0 1696.95 977.8"><defs><style>.cls-1{fill:#e7b510;}.cls-2{fill:#e87610;}.cls-3{fill:#e74910;}</style></defs><g><rect class="cls-3" x="1484.58" y="765.43" width="15.15" height="15.15"/><rect class="cls-3" x="1469.43" y="750.28" width="15.15" height="15.15"/><rect class="cls-3" x="1454.28" y="735.13" width="15.15" height="15.15"/><rect class="cls-3" x="1439.12" y="719.97" width="15.16" height="15.16"/><rect class="cls-3" x="1484.58" y="780.58" width="15.15" height="15.15"/><rect class="cls-3" x="1469.43" y="765.43" width="15.15" height="15.15"/><rect class="cls-3" x="1454.28" y="750.28" width="15.15" height="15.15"/><rect class="cls-3" x="1439.12" y="735.13" width="15.16" height="15.15"/><rect class="cls-3" x="1484.58" y="795.73" width="15.15" height="15.15"/><rect class="cls-3" x="1469.43" y="780.58" width="15.15" height="15.15"/><rect class="cls-3" x="1454.28" y="765.43" width="15.15" height="15.15"/><rect class="cls-3" x="1439.12" y="750.28" width="15.16" height="15.15"/><rect class="cls-3" x="1423.97" y="735.13" width="15.15" height="15.15"/><rect class="cls-3" x="1423.97" y="719.97" width="15.15" height="15.16"/><rect class="cls-3" x="1423.97" y="704.82" width="15.15" height="15.15"/></g><g><rect class="cls-3" x="1484.58" y="765.43" width="15.15" height="15.15"/><rect class="cls-3" x="1469.43" y="750.28" width="15.15" height="15.15"/><rect class="cls-3" x="1454.28" y="735.13" width="15.15" height="15.15"/><rect class="cls-3" x="1439.12" y="719.97" width="15.16" height="15.16"/><rect class="cls-2" x="1484.58" y="780.58" width="15.15" height="15.15"/><rect class="cls-2" x="1469.43" y="765.43" width="15.15" height="15.15"/><rect class="cls-2" x="1454.28" y="750.28" width="15.15" height="15.15"/><rect class="cls-2" x="1439.12" y="735.13" width="15.16" height="15.15"/><rect class="cls-1" x="1484.58" y="795.73" width="15.15" height="15.15"/><rect class="cls-1" x="1469.43" y="780.58" width="15.15" height="15.15"/><rect class="cls-1" x="1454.28" y="765.43" width="15.15" height="15.15"/><rect class="cls-1" x="1439.12" y="750.28" width="15.16" height="15.15"/><rect class="cls-1" x="1423.97" y="735.13" width="15.15" height="15.15"/><rect class="cls-2" x="1423.97" y="719.97" width="15.15" height="15.16"/><rect class="cls-3" x="1423.97" y="704.82" width="15.15" height="15.15"/></g></svg>